<svg xmlns="http://www.w3.org/2000/svg" viewBox="0 0 2048 1024">
  <defs>
    <linearGradient id="ocean" x1="0" y1="0" x2="1" y2="1">
      <stop offset="0" stop-color="#12384f"/>
      <stop offset="0.45" stop-color="#1f7288"/>
      <stop offset="1" stop-color="#08202f"/>
    </linearGradient>
    <filter id="soft">
      <feGaussianBlur stdDeviation="5"/>
    </filter>
  </defs>
  <rect width="2048" height="1024" fill="url(#ocean)"/>
  <g fill="#4ea36d" opacity="0.82" filter="url(#soft)">
    <path d="M218 258c88-68 198-96 322-64 94 24 146 76 230 92 70 14 145-8 214 18 76 28 95 94 48 146-42 48-124 55-193 92-84 46-96 116-174 155-76 38-170 12-206-57-30-59-10-122-52-168-45-50-129-42-183-83-46-35-52-89-6-131Z"/>
    <path d="M1018 190c96-44 210-36 324-10 128 30 228 88 352 112 68 13 142 9 198 48 65 44 54 108-4 145-68 44-166 23-242 60-78 38-93 112-162 150-86 47-192 3-250-55-54-53-79-120-146-158-64-36-150-34-197-87-62-70 18-154 127-205Z"/>
    <path d="M1298 704c62-44 140-42 216-20 88 26 145 74 247 82 64 5 133-12 182 18 52 32 43 88-3 121-60 42-154 40-238 28-96-14-182-45-277-25-64 13-126 44-179 22-67-27-33-164 52-226Z"/>
  </g>
  <g stroke="#ffffff" stroke-width="2" opacity="0.12">
    <path d="M0 256h2048M0 512h2048M0 768h2048"/>
    <path d="M256 0v1024M512 0v1024M768 0v1024M1024 0v1024M1280 0v1024M1536 0v1024M1792 0v1024"/>
  </g>
</svg>
